# xmcd
#
# Track frame offsets: 
#        150
#        13920
#        28335
#        47650
#        63247
#        72712
#        82060
#        98305
#        108735
#        118772
#
# Disc length: 1716 seconds
#
# Revision: 6
# Processed by: cddbd v1.5.2PL0 Copyright (c) Steve Scherf et al.
# Submitted via: ExactAudioCopy v0.99pb4
#
DISCID=8c06b20a
DTITLE=Various Artist - Country Christmas
DYEAR=1991
DGENRE=Christmas
TTITLE0=Lee Greenwood - Oh Holy Night
TTITLE1=Barbara Mandrell - It Must Have Been The Mistletoe
TTITLE2=Steve Wariner - Tennesee Christmass
TTITLE3=The Oak Ridge Boys - It's Christmas Time Once Again
TTITLE4=Brenda Lee - Rockin' Around The Chirstmas Tree
TTITLE5=Loretta Lynn - Santa Claus Is Comin' To Town
TTITLE6=Reba McEntire - Silent Night
TTITLE7=George Strait - Frosty The Snowman
TTITLE8=Freddy Fender - Blue Christmas
TTITLE9=Burl Ives - A Holly Jolly Christmas
EXTD=
EXTT0=
EXTT1=
EXTT2=
EXTT3=
EXTT4=
EXTT5=
EXTT6=
EXTT7=
EXTT8=
EXTT9=
PLAYORDER=
